<svg width="683" height="683" viewBox="0 0 683 683" fill="none" xmlns="http://www.w3.org/2000/svg">
<path d="M627.333 129.558C636.267 133.425 641.333 143.691 639.467 153.691C638.267 159.958 631.6 167.291 625.6 169.025C622.133 170.091 533.733 170.358 338.4 170.091L56.1333 169.691L52.5333 166.891C45.4666 161.691 43.3333 157.425 43.3333 149.025C43.3333 140.625 45.4666 136.358 52.5333 131.158L56.1333 128.358L339.733 128.091C573.467 127.825 624 128.091 627.333 129.558Z" fill="#FF889E"/>
<path d="M630.719 321.551C637.342 325.401 641.099 335.622 639.715 345.577C638.825 351.816 633.882 359.117 629.434 360.842C626.864 361.904 570.813 362.17 448.133 361.904L270.49 361.506L267.821 358.718C262.582 353.542 261 349.294 261 340.931C261 332.569 262.582 328.321 267.821 323.144L270.49 320.357L449.122 320.091C596.12 319.826 628.248 320.091 630.719 321.551Z" fill="#FF889E"/>
<path d="M616.586 513.243C633.295 517.092 642.772 527.313 639.28 537.269C637.036 543.507 624.567 550.808 613.344 552.534C607.11 553.596 519.326 553.861 335.529 553.596C68.936 553.197 66.941 553.197 60.2076 550.41C46.9902 545.233 43 540.985 43 532.623C43 524.26 46.9902 520.012 60.2076 514.836C66.941 512.048 68.6866 512.048 338.023 511.783C559.477 511.517 610.601 511.783 616.586 513.243Z" fill="#FF889E"/>
</svg>
